<svg xmlns="http://www.w3.org/2000/svg" fill="none" viewBox="0 0 283 64"><path fill="black" d="M141 16c-11 0-19 7.2-19 18s8.9 18 20 18c6.6 0 12.5-3.2 16-8.2l2.3 3.9C154.9 54.2 148 58 140 58c-15.5 0-26-12-26-24s10.5-24 26-24c8 0 14.9 3.8 20.3 10.3l-2.3 3.9C154.5 19.2 148.6 16 141 16zM63 16c-11 0-19 7.2-19 18s8.9 18 20 18c6.6 0 12.5-3.2 16-8.2l2.3 3.9C76.9 54.2 70 58 62 58c-15.5 0-26-12-26-24s10.5-24 26-24c8 0 14.9 3.8 20.3 10.3l-2.3 3.9C76.5 19.2 70.6 16 63 16zM28 32a9 9 0 1 1-18 0 9 9 0 0 1 18 0zM283 8l-12 24 12 24h-8l-8-16-8 16h-8l12-24-12-24h8l8 16 8-16h8z"/></svg>